<svg width="100%" height="100%" viewBox="0 0 1624 1624" version="1.1" xmlns="http://www.w3.org/2000/svg" xmlns:xlink="http://www.w3.org/1999/xlink" xml:space="preserve" xmlns:serif="http://www.serif.com/" style="fill-rule:evenodd;clip-rule:evenodd;stroke-linejoin:round;stroke-miterlimit:2;">
    <g transform="matrix(1,0,0,1,-189,-189)">
        <g id="Plan1">
            <g id="Fond">
                <circle cx="1001" cy="1001" r="812" style="fill:none;stroke:rgb(0,111,184);stroke-width:58.33px;"/>
                <g transform="matrix(0.858804,0,0,0.858804,141.296,141.296)">
                    <circle cx="1001" cy="1001" r="812" style="fill:rgb(0,111,184);"/>
                </g>
                <g transform="matrix(1,0,0,1,0,1)">
                    <circle cx="1001" cy="1001" r="729.17" style="fill:white;"/>
                </g>
            </g>
            <g id="Textes">
                <g transform="matrix(1,0,0,1,-10.82,22.25)">
                    <path d="M1001,189.17C1449.1,189.17 1801.83,541.902 1801.83,990C1801.83,1001.07 1801.74,1012.08 1801.57,1023.04" style="fill:none;stroke:white;stroke-width:1px;"/>
                    <text x="300px" y="600px" style="font-family:'Arial-BoldMT', 'Arial', sans-serif;font-weight:700;font-size:125px;fill:white;" text-anchor="middle">
                        <textPath xlink:href="#_Image1" startOffset="50%">
                            الصندوق الوطني للتأمينات الإجتماعية للعمال الأجراء
                        </textPath>
                    </text>
                </g>
                <g transform="matrix(6.12323e-17,-1,1,6.12323e-17,98.6667,1903.33)">
                    <path d="M1001,189.17C1449.1,189.17 1801.83,541.902 1801.83,990C1801.83,1001.07 1801.74,1012.08 1801.57,1023.04" style="fill:none;stroke:white;stroke-width:1px;"/>
                </g>
                <g transform="matrix(1.59129,0,0,1.59129,-592.868,-525.666)">
                    <text x="750.015px" y="1120.3px" style="font-family:'Arial-BoldMT', 'Arial', sans-serif;font-weight:700;font-size:150px;fill:rgb(0,111,184);">C<tspan x="840.015px " y="1120.3px ">N</tspan><tspan x="942.015px " y="1120.3px ">A</tspan><tspan x="1038.77px " y="1120.3px ">S</tspan></text>
                </g>
            </g>
            <g id="logo">
                <g transform="matrix(1,0,0,1,1.48,1.48)">
                    <path d="M1105.7,991.68C1087.06,1015.71 1032.54,1079.82 994.57,1079.82C956.6,1079.82 902.08,1015.71 883.44,991.68C838.41,932.74 742.8,819.5 742.8,707.03C742.8,561.46 855.93,448.33 1001.5,448.33C1147.07,448.33 1260.2,561.46 1260.2,707.03C1260.2,819.5 1164.59,932.74 1105.7,991.68Z" style="fill:rgb(0,111,184);"/>
                </g>
                <g transform="matrix(1,0,0,1,1.48,1.48)">
                    <path d="M1328.71,802.73C1314.12,822.46 1273.65,873.35 1244.64,873.35C1215.63,873.35 1175.16,822.46 1160.57,802.73C1125.79,756.9 1052.1,669.93 1052.1,582.49C1052.1,468.13 1137.94,379.17 1244.64,379.17C1351.34,379.17 1437.18,468.13 1437.18,582.49C1437.18,669.93 1363.49,756.9 1328.71,802.73Z" style="fill:rgb(0,111,184);"/>
                </g>
                <g transform="matrix(1,0,0,1,1.48,1.48)">
                    <path d="M674.29,802.73C688.88,822.46 729.35,873.35 758.36,873.35C787.37,873.35 827.84,822.46 842.43,802.73C877.21,756.9 950.9,669.93 950.9,582.49C950.9,468.13 865.06,379.17 758.36,379.17C651.66,379.17 565.82,468.13 565.82,582.49C565.82,669.93 639.51,756.9 674.29,802.73Z" style="fill:rgb(0,111,184);"/>
                </g>
                <path d="M1654.17,1051.2C1654.17,1185.08 1359.18,1295.83 1001,1295.83C642.82,1295.83 347.83,1185.08 347.83,1051.2C347.83,1001.38 411.75,930.56 507.52,873.5C522.61,863.38 538.56,854.49 555.22,846.88C564.31,842.83 574.08,839.46 584.28,836.87C589.65,835.49 595.13,834.34 600.6,833.4C649.38,825.21 704.14,820.83 762.5,820.83C855.9,820.83 956.45,830.43 1037.12,846.88C1054.4,850.31 1070.7,854.73 1086.1,859.99C1123.83,872.93 1162.2,890.39 1195.14,910.45C1251.7,945.31 1295.83,991.68 1295.83,1051.2C1295.83,1070.36 1288.66,1088.3 1276.5,1103.88C1260.03,1124.64 1235.84,1140.73 1206.84,1153.07C1155.15,1175.25 1083,1187.5 1001,1187.5C919,1187.5 846.85,1175.25 795.16,1153.07C766.16,1140.73 741.97,1124.64 725.5,1103.88C713.34,1088.3 706.17,1070.36 706.17,1051.2C706.17,991.68 750.3,945.31 806.86,910.45C839.8,890.39 878.17,872.93 915.9,859.99C931.3,854.73 947.6,850.31 964.88,846.88L965.26,846.8C965.26,846.8 965.26,846.88 965.26,846.88C965.25,846.88 964.88,846.88 964.88,846.88C947.6,850.31 931.3,854.73 915.9,859.99C878.17,872.93 839.8,890.39 806.86,910.45C750.3,945.31 706.17,991.68 706.17,1051.2C706.17,1070.36 713.34,1088.3 725.5,1103.88C741.97,1124.64 766.16,1140.73 795.16,1153.07C846.85,1175.25 919,1187.5 1001,1187.5C1083,1187.5 1155.15,1175.25 1206.84,1153.07C1235.84,1140.73 1259.69,1124.64 1276.16,1103.88C1288.32,1088.3 1295.49,1070.36 1295.49,1051.2C1295.83,991.68 1251.7,945.31 1195.14,910.45C1162.2,890.39 1123.83,872.93 1086.1,859.99C1070.7,854.73 1054.4,850.31 1037.12,846.88C1144.1,826.46 1283.45,820.83 1381.25,820.83C1439.61,820.83 1494.37,825.21 1543.15,833.4C1548.62,834.34 1554.1,835.49 1559.47,836.87C1569.67,839.46 1579.44,842.83 1588.53,846.88C1605.19,854.49 1621.14,863.38 1636.23,873.5C1731.99,930.56 1795.83,1001.38 1795.83,1051.2C1795.83,1185.08 1490.84,1295.83 1132.66,1295.83L1001,1295.83L869.34,1295.83C735.46,1295.83 456.16,1295.83 456.16,1295.83C590.04,1295.83 671.21,1295.83 1001,1295.83C1359.18,1295.83 1654.17,1185.08 1654.17,1051.2Z" style="fill:rgb(0,111,184);"/>
                <path d="M1494.32,1354.17C1494.32,1399.93 1274.62,1437.5 1001,1437.5C727.38,1437.5 507.68,1399.93 507.68,1354.17C507.68,1308.4 727.38,1270.83 1001,1270.83C1274.62,1270.83 1494.32,1308.4 1494.32,1354.17Z" style="fill:rgb(0,111,184);"/>
                <path d="M1625,1462.5C1625,1508.27 1341.22,1545.83 1001,1545.83C660.78,1545.83 377,1508.27 377,1462.5" style="fill:none;stroke:rgb(0,111,184);stroke-width:58.33px;"/>
            </g>
        </g>
    </g>
</svg>
